<?xml version="1.0" encoding="UTF-8" standalone="no"?>
<svg
   xmlns:dc="http://purl.org/dc/elements/1.1/"
   xmlns:cc="http://creativecommons.org/ns#"
   xmlns:rdf="http://www.w3.org/1999/02/22-rdf-syntax-ns#"
   xmlns:svg="http://www.w3.org/2000/svg"
   xmlns="http://www.w3.org/2000/svg"
   xmlns:xlink="http://www.w3.org/1999/xlink"
   xmlns:sodipodi="http://sodipodi.sourceforge.net/DTD/sodipodi-0.dtd"
   xmlns:inkscape="http://www.inkscape.org/namespaces/inkscape"
   width="24"
   height="24"
   viewBox="0 0 24 24"
   version="1.1"
   id="svg12"
   sodipodi:docname="absent-approve.svg"
   inkscape:version="0.92.3 (2405546, 2018-03-11)">
  <metadata
     id="metadata16">
    <rdf:RDF>
      <cc:Work
         rdf:about="">
        <dc:format>image/svg+xml</dc:format>
        <dc:type
           rdf:resource="http://purl.org/dc/dcmitype/StillImage" />
      </cc:Work>
    </rdf:RDF>
  </metadata>
  <sodipodi:namedview
     pagecolor="#ffffff"
     bordercolor="#666666"
     borderopacity="1"
     objecttolerance="10"
     gridtolerance="10"
     guidetolerance="10"
     inkscape:pageopacity="0"
     inkscape:pageshadow="2"
     inkscape:window-width="1920"
     inkscape:window-height="1170"
     id="namedview14"
     showgrid="false"
     inkscape:zoom="9.8333333"
     inkscape:cx="-15.686813"
     inkscape:cy="7.9322033"
     inkscape:window-x="1920"
     inkscape:window-y="0"
     inkscape:window-maximized="1"
     inkscape:current-layer="svg12" />
  <defs
     id="defs3">
    <path
       id="a"
       d="M0 0h24v24H0V0z" />
  </defs>
  <clipPath
     id="b">
    <use
       xlink:href="#a"
       overflow="visible"
       id="use5" />
  </clipPath>
  <path
     d="M 22.07,9.64 C 21.86,8.84 21.03,8.36 20.23,8.58 L 14.92,10 8.02,3.57 6.09,4.08 l 4.14,7.17 -4.97,1.33 -1.97,-1.54 -1.45,0.39 1.82,3.16 0.77,1.33 1.6,-0.43 5.31,-1.42 4.35,-1.16 5.31,-1.42 c 0.81,-0.23 1.28,-1.05 1.07,-1.85 z"
     clip-path="url(#b)"
     id="path8"
     style="fill:#323232;fill-opacity:1"
     inkscape:connector-curvature="0"
     sodipodi:nodetypes="sccccccccccccccs"
     transform="matrix(0.81884307,0,0,0.81884307,-0.07345092,-1.4210663)" />
  <path
     clip-path="url(#b)"
     d="M 0,0 H 24 V 24 H 0 Z"
     id="path10"
     inkscape:connector-curvature="0"
     transform="translate(-0.40677968,-2.3050847)"
     style="fill:none" />
  <g
     id="g837"
     transform="translate(1.7966101,3.7288137)">
    <path
       id="path4"
       d="M 0,0 H 24 V 24 H 0 Z"
       inkscape:connector-curvature="0"
       style="fill:none" />
    <path
       style="fill:#323232;fill-opacity:1"
       id="path6"
       d="M 9,16.17 4.83,12 3.41,13.41 9,19 21,7 19.59,5.59 Z"
       inkscape:connector-curvature="0" />
  </g>
</svg>
