<?xml version="1.0" encoding="UTF-8" standalone="no"?>
<!-- Generator: Adobe Illustrator 23.0.1, SVG Export Plug-In . SVG Version: 6.00 Build 0)  -->

<svg
   xmlns:dc="http://purl.org/dc/elements/1.1/"
   xmlns:cc="http://creativecommons.org/ns#"
   xmlns:rdf="http://www.w3.org/1999/02/22-rdf-syntax-ns#"
   xmlns:svg="http://www.w3.org/2000/svg"
   xmlns="http://www.w3.org/2000/svg"
   xmlns:sodipodi="http://sodipodi.sourceforge.net/DTD/sodipodi-0.dtd"
   xmlns:inkscape="http://www.inkscape.org/namespaces/inkscape"
   version="1.1"
   x="0px"
   y="0px"
   width="24px"
   height="24px"
   viewBox="0 0 24 24"
   enable-background="new 0 0 24 24"
   xml:space="preserve"
   id="svg13"
   sodipodi:docname="absent-last-minute.svg"
   inkscape:version="0.92.3 (2405546, 2018-03-11)"><metadata
   id="metadata19"><rdf:RDF><cc:Work
       rdf:about=""><dc:format>image/svg+xml</dc:format><dc:type
         rdf:resource="http://purl.org/dc/dcmitype/StillImage" /></cc:Work></rdf:RDF></metadata><defs
   id="defs17" /><sodipodi:namedview
   pagecolor="#ffffff"
   bordercolor="#666666"
   borderopacity="1"
   objecttolerance="10"
   gridtolerance="10"
   guidetolerance="10"
   inkscape:pageopacity="0"
   inkscape:pageshadow="2"
   inkscape:window-width="2083"
   inkscape:window-height="1281"
   id="namedview15"
   showgrid="false"
   inkscape:zoom="9.8333333"
   inkscape:cx="12"
   inkscape:cy="12"
   inkscape:window-x="0"
   inkscape:window-y="0"
   inkscape:window-maximized="0"
   inkscape:current-layer="svg13" />
<g
   id="Bounding_Box">
	<rect
   fill="none"
   width="24"
   height="24"
   id="rect2" />
</g>
<g
   id="Flat"
   style="fill:#323232;fill-opacity:1">
	<g
   id="ui_x5F_spec_x5F_header_copy_2"
   style="fill:#323232;fill-opacity:1">
	</g>
	<g
   id="g10"
   style="fill:#323232;fill-opacity:1">
		<path
   d="M20,3H9v2.4l1.81,1.45C10.93,6.94,11,7.09,11,7.24v4.26c0,0.28-0.22,0.5-0.5,0.5h-4C6.22,12,6,11.78,6,11.5V7.24    c0-0.15,0.07-0.3,0.19-0.39L8,5.4V3H4v10c0,2.21,1.79,4,4,4h6c2.21,0,4-1.79,4-4v-3h2c1.11,0,2-0.9,2-2V5C22,3.89,21.11,3,20,3z     M20,8h-2V5h2V8z"
   id="path6"
   style="fill:#323232;fill-opacity:1" />
		<rect
   x="4"
   y="19"
   width="16"
   height="2"
   id="rect8"
   style="fill:#323232;fill-opacity:1" />
	</g>
</g>
</svg>