<?xml version="1.0" encoding="UTF-8" standalone="no"?>
<!-- Generator: Adobe Illustrator 23.0.1, SVG Export Plug-In . SVG Version: 6.00 Build 0)  -->

<svg
   xmlns:dc="http://purl.org/dc/elements/1.1/"
   xmlns:cc="http://creativecommons.org/ns#"
   xmlns:rdf="http://www.w3.org/1999/02/22-rdf-syntax-ns#"
   xmlns:svg="http://www.w3.org/2000/svg"
   xmlns="http://www.w3.org/2000/svg"
   xmlns:sodipodi="http://sodipodi.sourceforge.net/DTD/sodipodi-0.dtd"
   xmlns:inkscape="http://www.inkscape.org/namespaces/inkscape"
   version="1.1"
   x="0px"
   y="0px"
   width="24px"
   height="24px"
   viewBox="0 0 24 24"
   enable-background="new 0 0 24 24"
   xml:space="preserve"
   id="svg16"
   sodipodi:docname="outdoor_grill-24px.svg"
   inkscape:version="0.92.3 (2405546, 2018-03-11)"><metadata
   id="metadata22"><rdf:RDF><cc:Work
       rdf:about=""><dc:format>image/svg+xml</dc:format><dc:type
         rdf:resource="http://purl.org/dc/dcmitype/StillImage" /></cc:Work></rdf:RDF></metadata><defs
   id="defs20" /><sodipodi:namedview
   pagecolor="#ffffff"
   bordercolor="#666666"
   borderopacity="1"
   objecttolerance="10"
   gridtolerance="10"
   guidetolerance="10"
   inkscape:pageopacity="0"
   inkscape:pageshadow="2"
   inkscape:window-width="1729"
   inkscape:window-height="1022"
   id="namedview18"
   showgrid="false"
   inkscape:zoom="9.8333333"
   inkscape:cx="12"
   inkscape:cy="12"
   inkscape:window-x="0"
   inkscape:window-y="0"
   inkscape:window-maximized="0"
   inkscape:current-layer="svg16" />
<g
   id="Bounding_Box">
	<rect
   fill="none"
   width="24"
   height="24"
   id="rect2" />
</g>
<g
   id="Master"
   style="fill:#323232;fill-opacity:1">
	<g
   id="g13"
   style="fill:#323232;fill-opacity:1">
		<path
   d="M17,22c1.66,0,3-1.34,3-3s-1.34-3-3-3c-1.3,0-2.4,0.84-2.82,2H9.14l1.99-3.06C11.42,14.98,11.71,15,12,15    s0.58-0.02,0.87-0.06l1.02,1.57c0.42-0.53,0.96-0.95,1.6-1.21l-0.6-0.93C17.31,13.27,19,10.84,19,8H5c0,2.84,1.69,5.27,4.12,6.37    l-3.95,6.08c-0.3,0.46-0.17,1.08,0.29,1.38h0c0.46,0.3,1.08,0.17,1.38-0.29l1-1.55h6.34C14.6,21.16,15.7,22,17,22z M17,18    c0.55,0,1,0.45,1,1c0,0.55-0.45,1-1,1s-1-0.45-1-1C16,18.45,16.45,18,17,18z"
   id="path5"
   style="fill:#323232;fill-opacity:1" />
		<path
   d="M9.41,7h1c0.15-1.15,0.23-1.64-0.89-2.96C9.1,3.54,8.84,3.27,9.06,2H8.07C7.86,3.11,8.1,4.05,8.96,4.96    C9.18,5.2,9.75,5.63,9.41,7z"
   id="path7"
   style="fill:#323232;fill-opacity:1" />
		<path
   d="M11.89,7h1c0.15-1.15,0.23-1.64-0.89-2.96c-0.42-0.5-0.68-0.78-0.46-2.04h-0.99c-0.21,1.11,0.03,2.05,0.89,2.96    C11.67,5.2,12.24,5.63,11.89,7z"
   id="path9"
   style="fill:#323232;fill-opacity:1" />
		<path
   d="M14.41,7h1c0.15-1.15,0.23-1.64-0.89-2.96C14.1,3.54,13.84,3.27,14.06,2h-0.99c-0.21,1.11,0.03,2.05,0.89,2.96    C14.18,5.2,14.75,5.63,14.41,7z"
   id="path11"
   style="fill:#323232;fill-opacity:1" />
	</g>
</g>
</svg>